<svg width="105" height="108" viewBox="0 0 105 108" fill="none" xmlns="http://www.w3.org/2000/svg">
<circle cx="52.5" cy="52.5" r="52.5" fill="white"/>
<path d="M28.9996 86.023C35.8379 90.2456 43.7747 92.3457 51.8065 92.0575C59.8383 91.7694 67.6043 89.1061 74.1224 84.4043C80.6405 79.7025 85.618 73.1734 88.4255 65.6428C91.2329 58.1121 91.7442 49.918 89.8947 42.0968" stroke="url(#paint0_linear)" stroke-width="2" stroke-linecap="round" stroke-linejoin="round"/>
<path d="M46.6191 64.5C43.7196 64.5 41.3691 66.8505 41.3691 69.75C41.3691 72.6495 43.7196 75 46.6191 75C49.5172 74.9967 51.8659 72.6481 51.8691 69.75C51.8691 66.8505 49.5186 64.5 46.6191 64.5ZM46.6191 73.5C44.5481 73.5 42.8691 71.821 42.8691 69.75C42.8691 67.679 44.5481 66 46.6191 66C48.6891 66.0024 50.3667 67.68 50.3691 69.75C50.3691 71.821 48.6902 73.5 46.6191 73.5Z" fill="url(#paint1_linear)"/>
<path d="M64.6191 64.5C61.7196 64.5 59.3691 66.8505 59.3691 69.75C59.3691 72.6495 61.7196 75 64.6191 75C67.5172 74.9967 69.8659 72.6481 69.8691 69.75C69.8691 66.8505 67.5186 64.5 64.6191 64.5ZM64.6191 73.5C62.5481 73.5 60.8691 71.821 60.8691 69.75C60.8691 67.679 62.5481 66 64.6191 66C66.6891 66.0024 68.3667 67.68 68.3691 69.75C68.3691 71.821 66.6902 73.5 64.6191 73.5Z" fill="url(#paint2_linear)"/>
<path d="M74.1291 40.5H37.6994L35.3489 30.5775C35.2689 30.2392 34.9669 30.0001 34.6191 30H30.8691C30.455 30 30.1191 30.3358 30.1191 30.75C30.1191 31.1642 30.455 31.5 30.8691 31.5H34.0259L40.6394 59.4225C40.7194 59.7608 41.0214 59.9999 41.3691 60H69.8691C70.2833 60 70.6191 59.6642 70.6191 59.25C70.6191 58.8358 70.2833 58.5 69.8691 58.5H41.9624L40.8966 54H71.2866C71.7008 54.0414 72.0703 53.7393 72.1117 53.3251C72.1532 52.9109 71.851 52.5414 71.4368 52.5C71.3869 52.495 71.3366 52.495 71.2866 52.5H40.5441L39.4784 48H72.7116C73.1258 48 73.4616 47.6642 73.4616 47.25C73.4616 46.8358 73.1258 46.5 72.7116 46.5H39.1191L38.0541 42H74.1291C74.5433 42 74.8791 41.6642 74.8791 41.25C74.8791 40.8358 74.5433 40.5 74.1291 40.5Z" fill="url(#paint3_linear)"/>
<defs>
<linearGradient id="paint0_linear" x1="82.734" y1="37.675" x2="46.287" y2="96.698" gradientUnits="userSpaceOnUse">
<stop stop-color="#4000A6"/>
<stop offset="1" stop-color="#D800E6"/>
</linearGradient>
<linearGradient id="paint1_linear" x1="41.3691" y1="69.75" x2="51.8691" y2="69.75" gradientUnits="userSpaceOnUse">
<stop stop-color="#4000A6"/>
<stop offset="1" stop-color="#D800E6"/>
</linearGradient>
<linearGradient id="paint2_linear" x1="59.3691" y1="69.75" x2="69.8691" y2="69.75" gradientUnits="userSpaceOnUse">
<stop stop-color="#4000A6"/>
<stop offset="1" stop-color="#D800E6"/>
</linearGradient>
<linearGradient id="paint3_linear" x1="30.1191" y1="45" x2="74.8791" y2="45" gradientUnits="userSpaceOnUse">
<stop stop-color="#4000A6"/>
<stop offset="1" stop-color="#D800E6"/>
</linearGradient>
</defs>
</svg>
