<svg width="33" height="34" viewBox="0 0 33 34" fill="none" xmlns="http://www.w3.org/2000/svg">
<g clip-path="url(#clip0)">
<path d="M31.8374 20.0925C32.8219 11.8054 31.3644 6.5735 28.7354 4.20713L28.7368 4.20575C24.4935 0.164627 10.1633 -0.433498 5.08675 4.38725C2.807 6.74538 2.004 10.2063 1.916 14.4908C1.828 18.7766 1.7235 26.8053 9.20488 28.9833H9.21175L9.20488 32.3094C9.20488 32.3094 9.154 33.6569 10.0148 33.9278C10.9993 34.2468 11.4448 33.6211 14.5069 29.9636C19.6274 30.4078 23.5599 29.3903 24.0068 29.2418C25.0408 28.8953 30.8914 28.1211 31.8374 20.0925ZM15.0115 27.6234C15.0115 27.6234 11.7706 31.6645 10.7628 32.7136C10.4328 33.0546 10.0711 33.023 10.0766 32.3465C10.0766 31.9024 10.1014 26.8245 10.1014 26.8245C3.7585 25.0068 4.1325 18.1703 4.20125 14.5939C4.27 11.0161 4.9245 8.086 6.855 6.11288C11.3086 1.937 23.872 2.87063 27.073 5.87913C30.9863 9.34825 29.5934 19.1493 29.6016 19.4834C28.7973 26.1851 24.0563 26.61 23.1845 26.9001C22.8119 27.0239 19.3538 27.9135 15.0115 27.6234Z" fill="white"/>
<path d="M16.8033 6.898C16.2739 6.898 16.2739 7.723 16.8033 7.72988C20.9104 7.7615 24.2929 10.6243 24.33 15.8754C24.33 16.4295 25.1413 16.4226 25.1344 15.8685H25.133C25.089 10.2104 21.3958 6.92963 16.8033 6.898Z" fill="white"/>
<path d="M22.2058 15.005C22.1935 15.5522 23.0033 15.5784 23.0102 15.0242C23.0776 11.9044 21.154 9.3345 17.5391 9.06363C17.0097 9.02513 16.9547 9.857 17.4827 9.8955C20.6177 10.1334 22.2691 12.2729 22.2058 15.005Z" fill="white"/>
<path d="M21.3406 18.5539C20.6613 18.1606 19.9697 18.4054 19.6837 18.7918L19.0856 19.5659C18.7817 19.9591 18.2138 19.9069 18.2138 19.9069C14.0696 18.811 12.9613 14.4743 12.9613 14.4743C12.9613 14.4743 12.9104 13.8871 13.2899 13.5723L14.0379 12.9535C14.4119 12.6565 14.6484 11.9415 14.2676 11.2389C13.2501 9.4005 12.5667 8.76663 12.2188 8.27988C11.8531 7.822 11.3031 7.71888 10.7311 8.02825H10.7187C9.52932 8.724 8.2272 10.0261 8.64382 11.3668C9.3547 12.7803 10.6609 17.2861 14.8244 20.6906C16.7811 22.3008 19.8776 23.9508 21.1921 24.3316L21.2044 24.3509C22.4997 24.7826 23.7592 23.4296 24.4316 22.2045V22.1949C24.7299 21.6023 24.6309 21.0413 24.1951 20.6741C23.4223 19.9206 22.2563 19.0888 21.3406 18.5539Z" fill="white"/>
<path d="M18.1064 12.1326C19.4278 12.2096 20.0685 12.8999 20.1373 14.3175C20.162 14.8716 20.9664 14.8331 20.9416 14.279C20.8536 12.4283 19.8884 11.397 18.1504 11.3008C17.621 11.2691 17.5715 12.101 18.1064 12.1326Z" fill="white"/>
</g>
<defs>
<clipPath id="clip0">
<rect width="33" height="33" fill="white" transform="translate(0 0.989624)"/>
</clipPath>
</defs>
</svg>
