<svg width="105" height="108" viewBox="0 0 105 108" fill="none" xmlns="http://www.w3.org/2000/svg">
<circle cx="52.5" cy="52.5" r="52.5" fill="white"/>
<path d="M28.9996 86.023C35.8379 90.2456 43.7747 92.3457 51.8065 92.0575C59.8383 91.7694 67.6043 89.1061 74.1224 84.4043C80.6405 79.7025 85.618 73.1734 88.4255 65.6428C91.2329 58.1121 91.7442 49.918 89.8947 42.0968" stroke="url(#paint0_linear)" stroke-width="2" stroke-linecap="round" stroke-linejoin="round"/>
<g clip-path="url(#clip0)">
<path fill-rule="evenodd" clip-rule="evenodd" d="M64.0886 30.75C64.0886 30.3358 64.4244 30 64.8386 30H72.0966H72.8466V30.75V38.0081C72.8466 38.4223 72.5108 38.7581 72.0966 38.7581C71.6824 38.7581 71.3466 38.4223 71.3466 38.0081V32.4456C65.3935 38.283 57.9555 42.1377 50.9861 44.5967C43.5567 47.218 36.6082 48.2716 32.4515 48.4349C32.0376 48.4512 31.6889 48.1288 31.6726 47.7149C31.6564 47.301 31.9787 46.9523 32.3926 46.9361C36.3983 46.7787 43.1985 45.7538 50.487 43.1822C57.2743 40.7874 64.4405 37.0671 70.1679 31.5H64.8386C64.4244 31.5 64.0886 31.1642 64.0886 30.75ZM72.7393 46.0315V73.7669H74.9881V75.2662H30.0117V73.7669H32.2605V59.5244C32.2605 59.1105 32.5962 58.7748 33.0101 58.7748H40.5062C40.9202 58.7748 41.2558 59.1105 41.2558 59.5244V73.7669H42.755V49.0299C42.755 48.616 43.0907 48.2803 43.5046 48.2803H51.0007C51.4147 48.2803 51.7503 48.616 51.7503 49.0299V73.7669H53.2495V56.526C53.2495 56.112 53.5852 55.7764 53.9991 55.7764H61.4952C61.9092 55.7764 62.2448 56.112 62.2448 56.526V73.7669H63.744V46.0315C63.744 45.6175 64.0796 45.2819 64.4936 45.2819H71.9897C72.4036 45.2819 72.7393 45.6175 72.7393 46.0315ZM33.7598 73.7669H39.7566V60.274H33.7598V73.7669ZM44.2542 73.7669H50.2511V49.7795H44.2542V73.7669ZM54.7487 73.7669H60.7456V57.2756H54.7487V73.7669ZM65.2432 73.7669H71.2401V46.7811H65.2432V73.7669Z" fill="url(#paint1_linear)"/>
</g>
<defs>
<linearGradient id="paint0_linear" x1="82.734" y1="37.675" x2="46.287" y2="96.698" gradientUnits="userSpaceOnUse">
<stop stop-color="#4000A6"/>
<stop offset="1" stop-color="#D800E6"/>
</linearGradient>
<linearGradient id="paint1_linear" x1="30.0117" y1="52.6331" x2="74.9881" y2="52.6331" gradientUnits="userSpaceOnUse">
<stop stop-color="#4000A6"/>
<stop offset="1" stop-color="#D800E6"/>
</linearGradient>
<clipPath id="clip0">
<rect width="45" height="45" fill="white" transform="translate(30 30)"/>
</clipPath>
</defs>
</svg>
