<svg width="105" height="108" viewBox="0 0 105 108" fill="none" xmlns="http://www.w3.org/2000/svg">
<circle cx="52.5" cy="52.5" r="52.5" fill="white"/>
<path d="M28.9996 86.023C35.8379 90.2456 43.7747 92.3457 51.8065 92.0575C59.8383 91.7694 67.6043 89.1061 74.1224 84.4043C80.6405 79.7025 85.618 73.1734 88.4255 65.6428C91.2329 58.1121 91.7442 49.918 89.8947 42.0968" stroke="url(#paint0_linear)" stroke-width="2" stroke-linecap="round" stroke-linejoin="round"/>
<path d="M34.6866 38.0989C35.2991 37.6947 36.0165 37.479 36.7503 37.4786C38.8213 37.4793 40.4998 39.1587 40.4992 41.2297C40.499 41.964 40.2832 42.6821 39.8786 43.2949L45.1871 48.6034C45.7954 48.1966 46.5102 47.9784 47.2421 47.9764C47.4631 47.9763 47.6837 47.9956 47.9013 48.0341C48.6149 48.1592 49.2765 48.49 49.8048 48.9859L54.2546 45.5644C53.5119 43.6311 54.477 41.4617 56.4103 40.719C58.3437 39.9763 60.513 40.9415 61.2557 42.8748C61.6913 44.0086 61.5507 45.2831 60.8786 46.2949L66.1856 51.6019C67.9178 50.4553 70.2515 50.9302 71.398 52.6624C72.5445 54.3946 72.0697 56.7283 70.3375 57.8748C68.6052 59.0213 66.2715 58.5465 65.1251 56.8143C64.292 55.5557 64.292 53.921 65.1251 52.6624L59.8181 47.3554C58.3308 48.3353 56.3598 48.1364 55.0983 46.8791C55.0848 46.8649 55.0758 46.8484 55.0631 46.8349L50.6778 50.2099C51.5196 52.1021 50.6681 54.3186 48.7758 55.1603C46.8836 56.0021 44.6671 55.1506 43.8253 53.2583C43.3047 52.088 43.4174 50.7328 44.1243 49.6646L38.8181 44.3584C37.0895 45.4992 34.7635 45.0229 33.6226 43.2943C32.4818 41.5658 32.9581 39.2397 34.6866 38.0989ZM68.2503 56.9786C69.493 56.9786 70.5003 55.9713 70.5003 54.7286C70.5003 53.486 69.493 52.4786 68.2503 52.4786C67.0077 52.4786 66.0003 53.486 66.0003 54.7286C66.0003 55.9713 67.0077 56.9786 68.2503 56.9786ZM56.1588 45.8209C56.5811 46.2425 57.1536 46.4791 57.7503 46.4786C58.993 46.4777 59.9996 45.4695 59.9985 44.2268C59.9975 42.9842 58.9894 41.9777 57.7467 41.9786C56.5041 41.9796 55.4975 42.9877 55.4985 44.2304C55.499 44.8271 55.7366 45.3993 56.1588 45.8209ZM45.4074 53.0191C45.4075 53.0192 45.4075 53.0193 45.4076 53.0194C45.7487 53.5092 46.2715 53.8424 46.8596 53.9449C46.9902 53.9672 47.1223 53.9785 47.2548 53.9786C47.7152 53.9783 48.1643 53.836 48.5411 53.5714C49.5589 52.8585 49.8062 51.4555 49.0933 50.4377C48.3805 49.4198 46.9775 49.1726 45.9597 49.8854C44.9418 50.5983 44.6945 52.0013 45.4074 53.0191ZM35.1514 42.8127C35.1538 42.8152 35.1563 42.8177 35.1588 42.8201C36.0378 43.6986 37.4624 43.6981 38.3408 42.8191C39.2192 41.9401 39.2187 40.5155 38.3397 39.6371C37.4612 38.7592 36.0373 38.7592 35.1588 39.6371C34.2798 40.512 34.2765 41.9338 35.1514 42.8127Z" fill="url(#paint1_linear)"/>
<path d="M74.25 32.25H30.75C30.3358 32.25 30 32.5858 30 33V63C30 63.4142 30.3358 63.75 30.75 63.75H48V71.25H43.5C43.0858 71.25 42.75 71.5858 42.75 72C42.75 72.4142 43.0858 72.75 43.5 72.75H61.5C61.9142 72.75 62.25 72.4142 62.25 72C62.25 71.5858 61.9142 71.25 61.5 71.25H57V63.75H74.25C74.6642 63.75 75 63.4142 75 63V33C75 32.5858 74.6642 32.25 74.25 32.25ZM55.5 71.25H49.5V63.75H55.5V71.25ZM73.5 62.25H31.5V33.75H73.5V62.25Z" fill="url(#paint2_linear)"/>
<defs>
<linearGradient id="paint0_linear" x1="82.734" y1="37.675" x2="46.287" y2="96.698" gradientUnits="userSpaceOnUse">
<stop stop-color="#4000A6"/>
<stop offset="1" stop-color="#D800E6"/>
</linearGradient>
<linearGradient id="paint1_linear" x1="33.002" y1="47.9893" x2="72.0232" y2="47.9893" gradientUnits="userSpaceOnUse">
<stop stop-color="#4000A6"/>
<stop offset="1" stop-color="#D800E6"/>
</linearGradient>
<linearGradient id="paint2_linear" x1="30" y1="52.5" x2="75" y2="52.5" gradientUnits="userSpaceOnUse">
<stop stop-color="#4000A6"/>
<stop offset="1" stop-color="#D800E6"/>
</linearGradient>
</defs>
</svg>
