<svg width="53" height="55" viewBox="0 0 53 55" fill="none" xmlns="http://www.w3.org/2000/svg">
<circle cx="23" cy="28.2751" r="23" fill="#B4B4B4"/>
<circle cx="26.9163" cy="28.7389" r="22.7147" transform="rotate(8.45673 26.9163 28.7389)" fill="white"/>
<path d="M32.3724 18.5182C36.4765 19.2599 39.4739 20.7571 41.3648 23.0097C43.2978 25.2304 44.0651 27.9193 43.6666 31.0764C43.3886 33.2791 42.5961 35.1743 41.289 36.7623C39.9866 38.3135 38.2023 39.4496 35.9361 40.1706C33.67 40.8915 30.9969 41.0576 27.9168 40.6689C25.062 40.3086 22.4132 39.5267 19.9701 38.3233C17.5693 37.0879 15.6938 35.6204 14.3438 33.9209L16.7119 31.031C17.8598 32.5185 19.4698 33.8219 21.5418 34.9413C23.6185 36.0239 25.8964 36.7216 28.3755 37.0345C31.6058 37.4422 34.1894 37.0783 36.1263 35.9428C38.0678 34.7706 39.1914 32.9731 39.4972 30.5502C39.7984 28.164 39.152 26.1803 37.558 24.5992C35.964 23.018 33.3828 22.0023 29.8144 21.5519L26.9972 21.1964L27.3656 18.2778L39.985 6.27629L19.8142 3.73047L20.259 0.206226L45.6134 3.40628L45.259 6.21466L32.3724 18.5182Z" fill="url(#paint0_linear)"/>
<defs>
<linearGradient id="paint0_linear" x1="16.1716" y1="19.4384" x2="44.6813" y2="23.0367" gradientUnits="userSpaceOnUse">
<stop stop-color="#4000A6"/>
<stop offset="1" stop-color="#D800E6"/>
</linearGradient>
</defs>
</svg>
