<svg width="53" height="58" viewBox="0 0 53 58" fill="none" xmlns="http://www.w3.org/2000/svg">
<ellipse cx="23" cy="31.4016" rx="23" ry="22.5" fill="#B4B4B4"/>
<circle cx="27.1038" cy="31.6739" r="22.7147" transform="rotate(8.45673 27.1038 31.6739)" fill="white"/>
<path d="M43.7413 37.5573L43.4746 41.0862L16.0979 39.0171L16.3104 36.205L33.7234 21.7165C35.9179 19.886 37.4224 18.2806 38.237 16.9003C39.0916 15.4861 39.5744 14.0438 39.6856 12.5734C39.8578 10.2943 39.192 8.46945 37.6881 7.09882C36.2241 5.69423 34.0239 4.88096 31.0873 4.65902C26.5152 4.31347 22.857 5.47881 20.1127 8.15504L17.4524 5.51397C19.1098 3.86469 21.1455 2.65066 23.5595 1.8719C26.0107 1.09594 28.7232 0.820338 31.6969 1.04509C35.6743 1.34569 38.7444 2.52046 40.9073 4.56939C43.1102 6.58437 44.0894 9.20929 43.8449 12.4442C43.6949 14.4292 43.1044 16.307 42.0734 18.0776C41.0423 19.8481 39.1913 21.834 36.5202 24.0351L22.2748 35.9349L43.7413 37.5573Z" fill="url(#paint0_linear)"/>
<defs>
<linearGradient id="paint0_linear" x1="16.3981" y1="19.4643" x2="44.9457" y2="21.6219" gradientUnits="userSpaceOnUse">
<stop stop-color="#4000A6"/>
<stop offset="1" stop-color="#D800E6"/>
</linearGradient>
</defs>
</svg>
